<svg xmlns="http://www.w3.org/2000/svg" xmlns:xlink="http://www.w3.org/1999/xlink" viewBox="0 0 40.09 45.95"><defs><style>.cls-1{fill:url(#linear-gradient);}</style><linearGradient id="linear-gradient" x1="41.99" y1="33.86" x2="-1.64" y2="6.6" gradientUnits="userSpaceOnUse"><stop offset="0" stop-color="#943e97"/><stop offset="0.18" stop-color="#9d3b90"/><stop offset="0.48" stop-color="#b5327b"/><stop offset="0.85" stop-color="#dc235b"/><stop offset="1" stop-color="#ee1c4b"/></linearGradient></defs><g id="Layer_2" data-name="Layer 2"><g id="Layer_1-2" data-name="Layer 1"><path class="cls-1" d="M31.09,0H5.58A5.58,5.58,0,0,0,0,5.58v25A10.29,10.29,0,0,0,10.29,40.88h14a1.28,1.28,0,0,1,1.28,1.28V44.5a1.37,1.37,0,0,0,2.55.77l0-.05c.88-1.48,1.76-2.95,2.62-4.41v.07h3.75a5.58,5.58,0,0,0,5.58-5.58V9A9,9,0,0,0,31.09,0Zm-.33,38.75A1.28,1.28,0,0,1,29.48,40H26.85a1.29,1.29,0,0,1-1.29-1.29V26.91a4.25,4.25,0,0,0-4.25-4.25H14.25A1.29,1.29,0,0,0,13,24v9.58a1.28,1.28,0,0,1-1.28,1.28H9.05a1.28,1.28,0,0,1-1.29-1.28V6.35A1.29,1.29,0,0,1,9.05,5.06h2.63A1.28,1.28,0,0,1,13,6.35v7.73a3.43,3.43,0,0,0,3.44,3.43h7.88a1.28,1.28,0,0,0,1.28-1.28V6.35a1.29,1.29,0,0,1,1.29-1.29h2.63a1.28,1.28,0,0,1,1.28,1.29ZM37,19.26l-.67.68a.52.52,0,0,0-.15.47l.18.95s0,.08-.09.06L35.37,21a.55.55,0,0,0-.5,0l-.84.46s-.09,0-.09-.06l.15-.95a.53.53,0,0,0-.16-.47l-.69-.65s0-.1,0-.1l.94-.16a.53.53,0,0,0,.4-.29L35,17.9a.06.06,0,0,1,.11,0l.43.85A.56.56,0,0,0,36,19l1,.12A.06.06,0,0,1,37,19.26Z"/></g></g></svg>